<svg width="251" height="250" viewBox="0 0 251 250" fill="none" xmlns="http://www.w3.org/2000/svg">
<g clip-path="url(#clip0_3_2)">
<mask id="mask0_3_2" style="mask-type:luminance" maskUnits="userSpaceOnUse" x="0" y="0" width="251" height="250">
<path d="M251 0H0V250H251V0Z" fill="white"/>
</mask>
<g mask="url(#mask0_3_2)">
<mask id="mask1_3_2" style="mask-type:luminance" maskUnits="userSpaceOnUse" x="0" y="0" width="251" height="250">
<path d="M251 0H0V250H251V0Z" fill="white"/>
</mask>
<g mask="url(#mask1_3_2)">
<mask id="mask2_3_2" style="mask-type:luminance" maskUnits="userSpaceOnUse" x="0" y="0" width="251" height="250">
<path d="M251 0H0V250H251V0Z" fill="white"/>
</mask>
<g mask="url(#mask2_3_2)">
<mask id="mask3_3_2" style="mask-type:luminance" maskUnits="userSpaceOnUse" x="0" y="0" width="251" height="250">
<path d="M251 0H0V250H251V0Z" fill="white"/>
</mask>
<g mask="url(#mask3_3_2)">
<mask id="mask4_3_2" style="mask-type:luminance" maskUnits="userSpaceOnUse" x="0" y="0" width="251" height="250">
<path d="M251 0H0V250H251V0Z" fill="white"/>
</mask>
<g mask="url(#mask4_3_2)">
<mask id="mask5_3_2" style="mask-type:luminance" maskUnits="userSpaceOnUse" x="0" y="0" width="251" height="250">
<path d="M251 0H0V250H251V0Z" fill="white"/>
</mask>
<g mask="url(#mask5_3_2)">
<mask id="mask6_3_2" style="mask-type:luminance" maskUnits="userSpaceOnUse" x="0" y="0" width="251" height="250">
<path d="M251 0H0V250H251V0Z" fill="white"/>
</mask>
<g mask="url(#mask6_3_2)">
<mask id="mask7_3_2" style="mask-type:luminance" maskUnits="userSpaceOnUse" x="0" y="0" width="251" height="250">
<path d="M251 0H0V250H251V0Z" fill="white"/>
</mask>
<g mask="url(#mask7_3_2)">
<path d="M14.6924 5C9.72645 5 5.69238 9.03407 5.69238 14C5.69238 18.9659 9.72645 23 14.6924 23C19.6583 23 23.6924 18.9659 23.6924 14C23.6924 9.03407 19.6583 5 14.6924 5ZM14.6924 5.78261C19.2353 5.78261 22.9098 9.45703 22.9098 14C22.9098 16.2432 22.0113 18.2723 20.5574 19.7542C19.8413 19.2285 18.9686 18.9648 18.2294 18.7018C17.8131 18.5536 17.4388 18.4068 17.1655 18.2432C16.9038 18.0865 16.7585 17.9254 16.6818 17.7403C16.6458 17.2915 16.6531 16.9303 16.6558 16.5037C16.7032 16.4565 16.764 16.4234 16.8124 16.3662C16.9267 16.2313 17.043 16.0674 17.1541 15.8832C17.3445 15.5671 17.483 15.1806 17.5607 14.7887C17.6792 14.7283 17.8059 14.7152 17.9023 14.5923C18.0803 14.3654 18.2005 14.046 18.2539 13.6011C18.3012 13.2082 18.1746 12.9379 18.0116 12.7306C18.1869 12.1574 18.404 11.2458 18.3303 10.3025C18.2897 9.78349 18.1591 9.26109 17.845 8.82668C17.545 8.41195 17.0581 8.11382 16.4349 8.00586C16.0391 7.55646 15.4103 7.34477 14.6587 7.34477H14.6549H14.6519C12.9682 7.37568 11.8818 8.07253 11.4167 9.13544C10.9744 10.1462 11.0695 11.4045 11.3869 12.7145C11.2163 12.9219 11.0826 13.1973 11.1309 13.6011C11.1844 14.0459 11.3046 14.3654 11.4825 14.5923C11.5788 14.7152 11.7055 14.7283 11.8241 14.7887C11.9017 15.1803 12.0403 15.5663 12.2307 15.8824C12.3417 16.0667 12.4579 16.2304 12.5723 16.3654C12.6208 16.4226 12.6815 16.4565 12.729 16.5037C12.7315 16.93 12.7387 17.2912 12.703 17.7403C12.6264 17.9247 12.4813 18.0859 12.22 18.2432C11.9471 18.4075 11.5733 18.5551 11.1576 18.7041C10.4193 18.9687 9.54697 19.2343 8.82893 19.7557C7.37406 18.2737 6.47499 16.244 6.47499 14C6.47499 9.45703 10.1494 5.78261 14.6924 5.78261ZM14.6618 8.12814C15.3834 8.12889 15.8374 8.34254 15.9618 8.56072L16.0574 8.72809L16.2477 8.75408C16.7392 8.82238 17.0138 9.01313 17.2106 9.28524C17.4074 9.55736 17.5166 9.93712 17.55 10.3636C17.6166 11.2166 17.3725 12.2239 17.2175 12.69L17.1189 12.9858L17.3856 13.1478C17.3585 13.1313 17.5111 13.2216 17.4766 13.5078C17.4349 13.856 17.3459 14.0333 17.2863 14.1093C17.2267 14.1852 17.2012 14.1755 17.2076 14.175L16.8851 14.2018L16.8507 14.5235C16.8211 14.8 16.6657 15.177 16.4838 15.4789C16.3929 15.6298 16.2961 15.7642 16.2148 15.8602C16.1334 15.9563 16.0468 16.0157 16.0795 15.9986L15.8701 16.1078V16.3448C15.8701 16.863 15.849 17.2868 15.9037 17.8901L15.9083 17.9421L15.9267 17.991C16.0807 18.4054 16.4021 18.6978 16.7635 18.9142C17.125 19.1307 17.5397 19.2871 17.9673 19.4393C18.672 19.69 19.4066 19.9368 19.9666 20.3014C18.5398 21.4965 16.7019 22.2174 14.6924 22.2174C12.6836 22.2174 10.8463 21.4972 9.41971 20.3029C9.98286 19.9404 10.7186 19.693 11.4221 19.4408C11.8494 19.2877 12.263 19.1305 12.6235 18.9135C12.984 18.6964 13.3043 18.4041 13.4581 17.991L13.4764 17.9421L13.481 17.8901C13.5353 17.2872 13.5146 16.8634 13.5146 16.3448V16.1078L13.3052 15.9978C13.338 16.0149 13.2513 15.9555 13.17 15.8595C13.0886 15.7634 12.9919 15.6298 12.9009 15.4789C12.7191 15.1769 12.5636 14.7996 12.5341 14.5235L12.4997 14.2018L12.1772 14.175C12.1832 14.1755 12.158 14.1852 12.0985 14.1093C12.0389 14.0334 11.9501 13.8561 11.9081 13.5078C11.8739 13.2216 12.0282 13.1302 11.9991 13.1478L12.2475 12.9973L12.1749 12.7153C11.8382 11.4194 11.7873 10.2403 12.1336 9.44879C12.4796 8.6581 13.1727 8.15645 14.6618 8.12814Z" fill="#41546F"/>
<path fill-rule="evenodd" clip-rule="evenodd" d="M36.0156 18.9014C39.4637 18.9014 42.2589 16.1062 42.2589 12.6582C42.2589 9.21015 39.4637 6.41496 36.0156 6.41496C32.5676 6.41496 29.7724 9.21015 29.7724 12.6582C29.7724 16.1062 32.5676 18.9014 36.0156 18.9014ZM36.0156 19.6582C39.8816 19.6582 43.0156 16.5242 43.0156 12.6582C43.0156 8.79221 39.8816 5.6582 36.0156 5.6582C32.1496 5.6582 29.0156 8.79221 29.0156 12.6582C29.0156 16.5242 32.1496 19.6582 36.0156 19.6582Z" fill="#41546F" stroke="#41546F" stroke-width="0.5"/>
<path fill-rule="evenodd" clip-rule="evenodd" d="M41.1939 17.1162L46.84 22.8455C46.9896 22.9951 46.9896 23.2376 46.84 23.3871C46.6904 23.5367 46.448 23.5367 46.2984 23.3871L40.6523 17.6579L41.1939 17.1162Z" fill="#41546F" stroke="#41546F" stroke-width="0.5" stroke-linecap="round"/>
<path d="M152.693 18.6582H135.693M152.693 18.6582L147.209 23.6582M152.693 18.6582L147.209 13.6582" stroke="white" stroke-miterlimit="10" stroke-linecap="round"/>
<path d="M130.193 18.6582H113.193M130.193 18.6582L124.709 23.6582M130.193 18.6582L124.709 13.6582" stroke="#6610F2" stroke-miterlimit="10" stroke-linecap="round"/>
<path d="M60.6934 63.6357H77.6934M60.6934 63.6357L66.1772 68.6357M60.6934 63.6357L66.1772 58.6357M69.1934 95.1357C51.5203 95.1357 37.1934 80.8089 37.1934 63.1357C37.1934 45.4626 51.5203 31.1357 69.1934 31.1357C86.8665 31.1357 101.193 45.4626 101.193 63.1357C101.193 80.8089 86.8665 95.1357 69.1934 95.1357Z" stroke="white" stroke-miterlimit="10" stroke-linecap="round"/>
<path d="M139.193 95.6357C156.866 95.6357 171.193 81.3089 171.193 63.6357C171.193 45.9626 156.866 31.6357 139.193 31.6357C121.52 31.6357 107.193 45.9626 107.193 63.6357C107.193 81.3089 121.52 95.6357 139.193 95.6357Z" stroke="white"/>
<path d="M147.693 64.1357H130.693M147.693 64.1357L142.209 69.1357M147.693 64.1357L142.209 59.1357" stroke="white" stroke-miterlimit="10" stroke-linecap="round"/>
<path d="M18.6924 29C11.5249 29 5.69238 34.8325 5.69238 42C5.69238 47.0071 8.5346 51.3586 12.6943 53.5273C12.8108 53.5881 12.938 53.6254 13.0689 53.637C13.1997 53.6486 13.3316 53.6343 13.4569 53.5949C13.5822 53.5556 13.6986 53.4919 13.7993 53.4076C13.9 53.3233 13.9831 53.22 14.0439 53.1035C14.1047 52.9871 14.142 52.8598 14.1536 52.7289C14.1652 52.5981 14.1509 52.4663 14.1115 52.3409C14.0722 52.2156 14.0085 52.0993 13.9242 51.9985C13.8399 51.8978 13.7366 51.8147 13.6201 51.7539C10.0998 49.9186 7.69238 46.2509 7.69238 42C7.69238 35.9135 12.6059 31 18.6924 31C24.7789 31 29.6924 35.9135 29.6924 42C29.6924 46.2509 27.2857 49.9196 23.7666 51.7539C23.6469 51.8127 23.5402 51.8948 23.4527 51.9954C23.3652 52.096 23.2987 52.2131 23.2572 52.3398C23.2156 52.4665 23.1998 52.6002 23.2107 52.7331C23.2215 52.866 23.2589 52.9954 23.3205 53.1136C23.3821 53.2319 23.4667 53.3366 23.5694 53.4217C23.672 53.5068 23.7907 53.5705 23.9183 53.609C24.046 53.6475 24.18 53.6602 24.3126 53.6462C24.4452 53.6321 24.5737 53.5917 24.6904 53.5273C28.8493 51.3596 31.6924 47.0071 31.6924 42C31.6924 34.8325 25.8599 29 18.6924 29ZM18.6924 33C13.7339 33 9.69238 37.0415 9.69238 42C9.69238 44.5352 10.7507 46.8333 12.4404 48.4668C12.6313 48.6512 12.8876 48.7522 13.153 48.7477C13.4184 48.7431 13.671 48.6333 13.8555 48.4424C14.0399 48.2515 14.1409 47.9952 14.1363 47.7298C14.1317 47.4644 14.0219 47.2118 13.831 47.0273C12.5127 45.7529 11.6924 43.9808 11.6924 42C11.6924 38.1225 14.8149 35 18.6924 35C22.5699 35 25.6924 38.1225 25.6924 42C25.6924 43.9808 24.872 45.7529 23.5537 47.0273C23.4592 47.1186 23.3835 47.2277 23.3311 47.3482C23.2787 47.4688 23.2506 47.5984 23.2483 47.7298C23.246 47.8613 23.2697 47.9918 23.3178 48.1141C23.366 48.2364 23.4378 48.348 23.5292 48.4425C23.6205 48.537 23.7295 48.6126 23.8501 48.665C23.9706 48.7174 24.1003 48.7455 24.2317 48.7478C24.3631 48.75 24.4937 48.7264 24.616 48.6782C24.7382 48.63 24.8498 48.5581 24.9443 48.4668C26.634 46.8333 27.6924 44.5352 27.6924 42C27.6924 37.0415 23.6509 33 18.6924 33ZM18.6924 39C17.8967 39 17.1337 39.3161 16.5711 39.8787C16.0084 40.4413 15.6924 41.2044 15.6924 42C15.6924 42.7956 16.0084 43.5587 16.5711 44.1213C17.1337 44.6839 17.8967 45 18.6924 45C19.488 45 20.2511 44.6839 20.8137 44.1213C21.3763 43.5587 21.6924 42.7956 21.6924 42C21.6924 41.2044 21.3763 40.4413 20.8137 39.8787C20.2511 39.3161 19.488 39 18.6924 39ZM18.6924 47C17.0354 47 15.6924 48.343 15.6924 50C15.6924 50.148 15.7163 50.2906 15.7373 50.4336H15.7256L15.7529 50.5918C15.7539 50.5978 15.7539 50.6053 15.7549 50.6113L16.708 56.2383L16.7158 56.2363C16.8348 57.2283 17.6694 58 18.6924 58C19.7154 58 20.5499 57.2283 20.6689 56.2363L20.6767 56.2383L21.6299 50.6113C21.6309 50.6053 21.6308 50.5978 21.6318 50.5918L21.6592 50.4336H21.6474C21.6684 50.2906 21.6924 50.148 21.6924 50C21.6924 48.343 20.3494 47 18.6924 47Z" fill="white"/>
<path d="M89.6934 25.6582H84.6934V10.6582H89.6934V25.6582ZM87.1944 8.6582C85.8114 8.6582 84.6934 7.5372 84.6934 6.1572C84.6934 4.7772 85.8134 3.6582 87.1944 3.6582C88.5724 3.6582 89.6934 4.7792 89.6934 6.1572C89.6934 7.5372 88.5724 8.6582 87.1944 8.6582ZM107.693 25.6582H102.886V18.3582C102.886 16.6172 102.853 14.3782 100.387 14.3782C97.8844 14.3782 97.4994 16.2742 97.4994 18.2322V25.6582H92.6934V10.6472H97.3074V12.6982H97.3724C98.0144 11.5182 99.5834 10.2742 101.923 10.2742C106.793 10.2742 107.693 13.3832 107.693 17.4252V25.6582Z" fill="white"/>
<path d="M78.2109 9.0957C77.9609 7.7207 76.7734 6.7207 75.3984 6.4082C73.3359 5.9707 69.5234 5.6582 65.3984 5.6582C61.2734 5.6582 57.3984 5.9707 55.3359 6.4082C53.9609 6.7207 52.7734 7.6582 52.5234 9.0957C52.2734 10.6582 52.0234 12.8457 52.0234 15.6582C52.0234 18.4707 52.2734 20.6582 52.5859 22.2207C52.8359 23.5957 54.0234 24.5957 55.3984 24.9082C57.5859 25.3457 61.3359 25.6582 65.4609 25.6582C69.5859 25.6582 73.3359 25.3457 75.5234 24.9082C76.8984 24.5957 78.0859 23.6582 78.3359 22.2207C78.5859 20.6582 78.8984 18.4082 78.9609 15.6582C78.8359 12.8457 78.5234 10.6582 78.2109 9.0957ZM62.0234 20.0332V11.2832L69.6484 15.6582L62.0234 20.0332Z" fill="white"/>
<path d="M174.949 18.6582H157.949M174.949 18.6582L169.466 23.6582M174.949 18.6582L169.466 13.6582" stroke="#34087B" stroke-miterlimit="10" stroke-linecap="round"/>
<path d="M212.209 68.6357L217.693 63.6357L212.209 58.6357" fill="#6610F2"/>
<path d="M209.193 95.6357C227.142 95.6357 241.693 81.085 241.693 63.1357C241.693 45.1865 227.142 30.6357 209.193 30.6357C191.244 30.6357 176.693 45.1865 176.693 63.1357C176.693 81.085 191.244 95.6357 209.193 95.6357Z" fill="#6610F2"/>
<path d="M217.693 63.6357H200.693M217.693 63.6357L212.209 68.6357M217.693 63.6357L212.209 58.6357" stroke="white" stroke-miterlimit="10" stroke-linecap="round"/>
<mask id="mask8_3_2" style="mask-type:luminance" maskUnits="userSpaceOnUse" x="12" y="69" width="14" height="8">
<path d="M26 69H12V77H26V69Z" fill="white"/>
</mask>
<g mask="url(#mask8_3_2)">
<path d="M13 70L19 76L25 70" stroke="#1C1F39" stroke-linecap="round"/>
</g>
<path fill-rule="evenodd" clip-rule="evenodd" d="M18.8333 114.279C25.1547 114.279 30.2792 109.155 30.2792 102.833C30.2792 96.5119 25.1547 91.3874 18.8333 91.3874C12.5119 91.3874 7.38738 96.5119 7.38738 102.833C7.38738 109.155 12.5119 114.279 18.8333 114.279ZM18.8333 115.667C25.9209 115.667 31.6666 109.921 31.6666 102.833C31.6666 95.7457 25.9209 90 18.8333 90C11.7457 90 6 95.7457 6 102.833C6 109.921 11.7457 115.667 18.8333 115.667Z" fill="white" stroke="white" stroke-width="0.5"/>
<path fill-rule="evenodd" clip-rule="evenodd" d="M28.3249 111.007L38.6762 121.511C38.9504 121.785 38.9504 122.229 38.6762 122.504C38.402 122.778 37.9575 122.778 37.6833 122.504L27.332 112L28.3249 111.007Z" fill="white" stroke="white" stroke-width="0.5" stroke-linecap="round"/>
<mask id="mask9_3_2" style="mask-type:luminance" maskUnits="userSpaceOnUse" x="6" y="132" width="36" height="36">
<path d="M42 132H6V168H42V132Z" fill="white"/>
</mask>
<g mask="url(#mask9_3_2)">
<path fill-rule="evenodd" clip-rule="evenodd" d="M41.3176 135.974C41.5337 135.758 41.7053 135.502 41.8224 135.22C41.9394 134.938 41.9998 134.635 42 134.33C42.0002 134.024 41.9402 133.722 41.8235 133.439C41.7067 133.157 41.5355 132.9 41.3196 132.684C41.1037 132.468 40.8474 132.296 40.5652 132.179C40.283 132.062 39.9805 132.002 39.675 132.002C39.3695 132.001 39.0669 132.061 38.7846 132.178C38.5023 132.295 38.2457 132.466 38.0295 132.682L23.9997 146.712L9.97391 132.682C9.53735 132.246 8.94525 132 8.32786 132C7.71048 132 7.11837 132.246 6.68182 132.682C6.24526 133.119 6 133.711 6 134.328C6 134.946 6.24526 135.538 6.68182 135.974L20.7116 150L6.68182 164.026C6.46565 164.242 6.29418 164.499 6.1772 164.782C6.06021 165.064 6 165.367 6 165.672C6 165.978 6.06021 166.281 6.1772 166.563C6.29418 166.846 6.46565 167.102 6.68182 167.318C7.11837 167.755 7.71048 168 8.32786 168C8.63356 168 8.93627 167.94 9.2187 167.823C9.50113 167.706 9.75775 167.535 9.97391 167.318L23.9997 153.288L38.0295 167.318C38.4661 167.754 39.058 167.999 39.675 167.999C40.292 167.998 40.8836 167.753 41.3196 167.316C41.7556 166.88 42.0004 166.288 42 165.671C41.9996 165.054 41.7541 164.462 41.3176 164.026L27.2878 150L41.3176 135.974Z" fill="white"/>
</g>
<g opacity="0.5">
<path d="M79.5 165.136C61.8269 165.136 47.5 150.809 47.5 133.136C47.5 115.463 61.8269 101.136 79.5 101.136C97.1731 101.136 111.5 115.463 111.5 133.136C111.5 150.809 97.1731 165.136 79.5 165.136Z" stroke="#1C1F39"/>
<path d="M71 133.636H88M71 133.636L76.4839 138.636M71 133.636L76.4839 128.636" stroke="#1C1F39" stroke-miterlimit="10" stroke-linecap="round"/>
</g>
<path d="M149.5 164C167.173 164 181.5 149.673 181.5 132C181.5 114.327 167.173 100 149.5 100C131.827 100 117.5 114.327 117.5 132C117.5 149.673 131.827 164 149.5 164Z" stroke="#1C1F39"/>
<path d="M158 132.5H141M158 132.5L152.516 137.5M158 132.5L152.516 127.5" stroke="#1C1F39" stroke-miterlimit="10" stroke-linecap="round"/>
<path d="M180.148 15.3076L186.148 21.3076L192.148 15.3076" stroke="white" stroke-linecap="round"/>
<path d="M205.502 5.41162C201.093 5.41162 197.502 9.00281 197.502 13.4116C197.502 17.8204 201.093 21.4116 205.502 21.4116C207.419 21.4116 209.18 20.7308 210.56 19.6007L215.337 24.3772C215.41 24.454 215.499 24.5153 215.596 24.5576C215.694 24.5998 215.799 24.6221 215.906 24.6232C216.012 24.6243 216.118 24.6041 216.216 24.5639C216.315 24.5236 216.404 24.4641 216.479 24.3889C216.555 24.3136 216.614 24.2241 216.654 24.1255C216.695 24.027 216.715 23.9214 216.714 23.815C216.713 23.7086 216.69 23.6034 216.648 23.5057C216.606 23.408 216.545 23.3197 216.468 23.246L211.691 18.4694C212.821 17.0895 213.502 15.3288 213.502 13.4116C213.502 9.00281 209.911 5.41162 205.502 5.41162ZM205.502 7.01161C209.046 7.01161 211.902 9.86752 211.902 13.4116C211.902 16.9557 209.046 19.8116 205.502 19.8116C201.958 19.8116 199.102 16.9557 199.102 13.4116C199.102 9.86752 201.958 7.01161 205.502 7.01161Z" fill="#E91768"/>
<mask id="mask10_3_2" style="mask-type:luminance" maskUnits="userSpaceOnUse" x="187" y="101" width="28" height="23">
<path d="M215 101H187V124H215V101Z" fill="white"/>
</mask>
<g mask="url(#mask10_3_2)">
<path d="M202.932 124V117.084C202.932 112.741 203.931 109.203 205.93 106.469C207.98 103.681 211.004 101.858 215 101V106.227C213.212 106.656 211.793 107.46 210.741 108.64C209.689 109.766 209.006 111.133 208.69 112.741H213.423V124H202.932ZM187 124V117.084C187 112.741 187.999 109.203 189.997 106.469C192.048 103.681 195.045 101.858 198.989 101V106.227C197.201 106.656 195.781 107.46 194.73 108.64C193.678 109.766 192.994 111.133 192.679 112.741H197.411V124H187Z" fill="#41546F"/>
</g>
<path d="M221.857 101L221 101.857L226.143 107L221 112.143L221.857 113L227 107.857L232.143 113L233 112.143L227.857 107L233 101.857L232.143 101L227 106.143L221.857 101Z" fill="#6610F2"/>
<path d="M221.857 119L221 119.857L226.143 125L221 130.143L221.857 131L227 125.857L232.143 131L233 130.143L227.857 125L233 119.857L232.143 119L227 124.143L221.857 119Z" fill="#E91768"/>
<path d="M221 17.7538L225.158 22L233 14" stroke="white" stroke-linecap="round" stroke-linejoin="round"/>
<path d="M195 129C190.591 129 187 132.591 187 137C187 141.409 190.591 145 195 145C196.917 145 198.678 144.319 200.058 143.189C200.497 142.82 200.837 142.55 201.189 142.058C202.319 140.678 203 138.917 203 137C203 132.591 199.409 129 195 129ZM195 130.6C198.544 130.6 201.4 133.456 201.4 137C201.4 140.544 198.544 143.4 195 143.4C191.456 143.4 188.6 140.544 188.6 137C188.6 133.456 191.456 130.6 195 130.6Z" fill="url(#paint0_linear_3_2)"/>
<path d="M209 142H226M209 142L214.484 147M209 142L214.484 137" stroke="#41546F" stroke-miterlimit="10" stroke-linecap="round"/>
<path fill-rule="evenodd" clip-rule="evenodd" d="M217.105 168.334C221.098 168.334 224.334 165.098 224.334 161.105C224.334 157.113 221.098 153.876 217.105 153.876C213.113 153.876 209.876 157.113 209.876 161.105C209.876 165.098 213.113 168.334 217.105 168.334ZM217.105 169.211C221.582 169.211 225.211 165.582 225.211 161.105C225.211 156.629 221.582 153 217.105 153C212.629 153 209 156.629 209 161.105C209 165.582 212.629 169.211 217.105 169.211Z" fill="#41546F" stroke="#41546F" stroke-width="0.5"/>
<path fill-rule="evenodd" clip-rule="evenodd" d="M223.102 166.267L229.639 172.901C229.813 173.074 229.813 173.355 229.639 173.528C229.466 173.702 229.185 173.702 229.012 173.528L222.475 166.895L223.102 166.267Z" fill="#41546F" stroke="#41546F" stroke-width="0.5" stroke-linecap="round"/>
<path fill-rule="evenodd" clip-rule="evenodd" d="M226.659 181.877C226.767 181.775 226.853 181.654 226.911 181.52C226.97 181.387 227 181.244 227 181.1C227 180.956 226.97 180.813 226.912 180.679C226.853 180.546 226.768 180.425 226.66 180.323C226.552 180.221 226.424 180.14 226.283 180.085C226.142 180.029 225.99 180.001 225.837 180.001C225.685 180.001 225.533 180.029 225.392 180.084C225.251 180.139 225.123 180.22 225.015 180.322L218 186.947L210.987 180.322C210.769 180.116 210.473 180 210.164 180C209.855 180 209.559 180.116 209.341 180.322C209.123 180.528 209 180.808 209 181.099C209 181.391 209.123 181.67 209.341 181.877L216.356 188.5L209.341 195.123C209.233 195.225 209.147 195.347 209.089 195.48C209.03 195.613 209 195.756 209 195.901C209 196.045 209.03 196.188 209.089 196.321C209.147 196.455 209.233 196.576 209.341 196.678C209.559 196.884 209.855 197 210.164 197C210.317 197 210.468 196.972 210.609 196.916C210.751 196.861 210.879 196.78 210.987 196.678L218 190.053L225.015 196.678C225.233 196.884 225.529 197 225.837 196.999C226.146 196.999 226.442 196.883 226.66 196.677C226.878 196.471 227 196.191 227 195.9C227 195.609 226.877 195.329 226.659 195.123L219.644 188.5L226.659 181.877Z" fill="#1C1F39"/>
</g>
<path d="M203 234.545L207.894 239.44L217.4 231.6L209.56 241.106L214.455 246L221 228L203 234.545Z" fill="#6610F2"/>
<path d="M229 234.545L233.894 239.44L243.4 231.6L235.56 241.106L240.455 246L247 228L229 234.545Z" fill="#AAB8C2"/>
<path d="M162.478 224H159V213.091H162.478V224ZM160.74 211.636C159.778 211.636 159 210.821 159 209.817C159 208.814 159.779 208 160.74 208C161.698 208 162.478 208.815 162.478 209.817C162.478 210.821 161.698 211.636 160.74 211.636ZM175 224H171.656V218.691C171.656 217.425 171.633 215.796 169.918 215.796C168.176 215.796 167.909 217.175 167.909 218.599V224H164.565V213.083H167.775V214.575H167.82C168.267 213.716 169.358 212.812 170.986 212.812C174.374 212.812 175 215.073 175 218.012V224Z" fill="#6D5BF6"/>
<path d="M184.478 224H181V213.091H184.478V224ZM182.74 211.636C181.778 211.636 181 210.821 181 209.817C181 208.814 181.779 208 182.74 208C183.698 208 184.478 208.815 184.478 209.817C184.478 210.821 183.698 211.636 182.74 211.636ZM197 224H193.656V218.691C193.656 217.425 193.633 215.796 191.918 215.796C190.176 215.796 189.909 217.175 189.909 218.599V224H186.565V213.083H189.775V214.575H189.82C190.267 213.716 191.358 212.812 192.986 212.812C196.374 212.812 197 215.073 197 218.012V224Z" fill="#AAB8C2"/>
<path d="M164.6 239.2H166.6L167.4 236H164.6V234.4C164.6 233.576 164.6 232.8 166.2 232.8H167.4V230.112C167.139 230.078 166.154 230 165.114 230C162.942 230 161.4 231.326 161.4 233.76V236H159V239.2H161.4V246H164.6V239.2Z" fill="#6D5BF6"/>
<path d="M186.6 239.2H188.6L189.4 236H186.6V234.4C186.6 233.576 186.6 232.8 188.2 232.8H189.4V230.112C189.139 230.078 188.154 230 187.114 230C184.942 230 183.4 231.326 183.4 233.76V236H181V239.2H183.4V246H186.6V239.2Z" fill="#AAB8C2"/>
<path d="M222.689 209.882C221.965 210.212 221.184 210.428 220.374 210.532C221.202 210.033 221.842 209.242 222.144 208.292C221.362 208.762 220.496 209.092 219.584 209.28C218.84 208.471 217.795 208 216.609 208C214.398 208 212.591 209.807 212.591 212.038C212.591 212.358 212.628 212.668 212.694 212.96C209.344 212.791 206.36 211.181 204.374 208.744C204.026 209.336 203.828 210.033 203.828 210.767C203.828 212.169 204.534 213.412 205.626 214.118C204.958 214.118 204.336 213.929 203.791 213.647V213.675C203.791 215.633 205.184 217.271 207.028 217.638C206.436 217.8 205.814 217.822 205.212 217.704C205.467 218.506 205.968 219.208 206.643 219.711C207.319 220.214 208.135 220.493 208.976 220.508C207.549 221.638 205.78 222.249 203.96 222.24C203.64 222.24 203.32 222.221 203 222.184C204.788 223.332 206.915 224 209.193 224C216.609 224 220.685 217.845 220.685 212.508C220.685 212.329 220.685 212.16 220.675 211.981C221.466 211.416 222.144 210.701 222.689 209.882Z" fill="#6D5BF6"/>
<path d="M248.689 209.882C247.965 210.212 247.184 210.428 246.374 210.532C247.202 210.033 247.842 209.242 248.144 208.292C247.362 208.762 246.496 209.092 245.584 209.28C244.84 208.471 243.795 208 242.609 208C240.398 208 238.591 209.807 238.591 212.038C238.591 212.358 238.628 212.668 238.694 212.96C235.344 212.791 232.36 211.181 230.374 208.744C230.026 209.336 229.828 210.033 229.828 210.767C229.828 212.169 230.534 213.412 231.626 214.118C230.958 214.118 230.336 213.929 229.791 213.647V213.675C229.791 215.633 231.184 217.271 233.028 217.638C232.436 217.8 231.814 217.822 231.212 217.704C231.467 218.506 231.968 219.208 232.643 219.711C233.319 220.214 234.135 220.493 234.976 220.508C233.549 221.638 231.78 222.249 229.96 222.24C229.64 222.24 229.32 222.221 229 222.184C230.788 223.332 232.915 224 235.193 224C242.609 224 246.685 217.845 246.685 212.508C246.685 212.329 246.685 212.16 246.675 211.981C247.466 211.416 248.144 210.701 248.689 209.882Z" fill="#AAB8C2"/>
</g>
<path d="M21.5 206C30.0604 206 37 199.06 37 190.5C37 181.94 30.0604 175 21.5 175C12.9396 175 6 181.94 6 190.5C6 199.06 12.9396 206 21.5 206Z" fill="#6610F2"/>
<path d="M16 190.754L20.1579 195L28 187" stroke="white" stroke-linecap="round" stroke-linejoin="round"/>
</g>
<path opacity="0.5" d="M21.9324 235V228.084C21.9324 223.741 22.9315 220.203 24.9296 217.469C26.9803 214.681 30.0038 212.858 34 212V217.227C32.2122 217.656 30.7925 218.46 29.7408 219.64C28.6892 220.766 28.0056 222.133 27.6901 223.741H32.4225V235H21.9324ZM6 235V228.084C6 223.741 6.99906 220.203 8.99718 217.469C11.0479 214.681 14.0451 212.858 17.9887 212V217.227C16.2009 217.656 14.7812 218.46 13.7296 219.64C12.6779 220.766 11.9944 222.133 11.6789 223.741H16.4113V235H6Z" fill="white"/>
</g>
<path d="M103.193 249C125.285 249 143.193 231.091 143.193 209C143.193 186.909 125.285 169 103.193 169C81.102 169 63.1934 186.909 63.1934 209C63.1934 231.091 81.102 249 103.193 249Z" fill="white"/>
<path d="M119.938 208.535L95.5195 222.633V194.437L119.938 208.535Z" fill="#E91768"/>
<path d="M250 142H233M250 142L244.516 147M250 142L244.516 137" stroke="#070A24" stroke-miterlimit="10" stroke-linecap="round"/>
</g>
</g>
<path d="M234 163L239 158.5L234 154" stroke="#41546F" stroke-miterlimit="10" stroke-linecap="round"/>
</g>
<path d="M50.5183 235V229.587C50.5183 226.189 51.3033 223.42 52.8732 221.28C54.4845 219.098 56.8601 217.671 60 217V221.091C58.5953 221.427 57.4798 222.056 56.6535 222.979C55.8272 223.86 55.2901 224.93 55.0423 226.189H58.7606V235H50.5183ZM38 235V229.587C38 226.189 38.785 223.42 40.3549 221.28C41.9662 219.098 44.3211 217.671 47.4197 217V221.091C46.015 221.427 44.8995 222.056 44.0732 222.979C43.2469 223.86 42.7099 224.93 42.462 226.189H46.1803V235H38Z" fill="#41546F"/>
</g>
<path fill-rule="evenodd" clip-rule="evenodd" d="M187.48 154.96C187.193 154.96 186.96 155.193 186.96 155.48V163.48C186.96 163.767 187.193 164 187.48 164H200.48C200.767 164 201 163.767 201 163.48V155.48C201 155.193 200.767 154.96 200.48 154.96H187.48ZM186 155.48C186 154.663 186.663 154 187.48 154H200.48C201.297 154 201.96 154.663 201.96 155.48V163.48C201.96 164.297 201.297 164.96 200.48 164.96H187.48C186.663 164.96 186 164.297 186 163.48V155.48Z" fill="#E91768"/>
<path fill-rule="evenodd" clip-rule="evenodd" d="M191.519 152.019C192.172 151.367 193.057 151 193.98 151C194.903 151 195.788 151.367 196.441 152.019C197.093 152.672 197.46 153.557 197.46 154.48C197.46 154.745 197.245 154.96 196.98 154.96C196.715 154.96 196.5 154.745 196.5 154.48C196.5 153.812 196.234 153.171 195.762 152.698C195.289 152.225 194.648 151.96 193.98 151.96C193.312 151.96 192.671 152.225 192.198 152.698C191.726 153.171 191.46 153.812 191.46 154.48C191.46 154.745 191.245 154.96 190.98 154.96C190.715 154.96 190.5 154.745 190.5 154.48C190.5 153.557 190.867 152.672 191.519 152.019Z" fill="#E91768"/>
<path fill-rule="evenodd" clip-rule="evenodd" d="M186 158.48C186 158.215 186.215 158 186.48 158H192.98C193.245 158 193.46 158.215 193.46 158.48C193.46 158.745 193.245 158.96 192.98 158.96H186.48C186.215 158.96 186 158.745 186 158.48Z" fill="#E91768"/>
<path fill-rule="evenodd" clip-rule="evenodd" d="M194.5 158.48C194.5 158.215 194.715 158 194.98 158H201.48C201.745 158 201.96 158.215 201.96 158.48C201.96 158.745 201.745 158.96 201.48 158.96H194.98C194.715 158.96 194.5 158.745 194.5 158.48Z" fill="#E91768"/>
<path fill-rule="evenodd" clip-rule="evenodd" d="M193.98 157.459C193.842 157.459 193.71 157.514 193.612 157.612C193.515 157.709 193.46 157.841 193.46 157.979V158.979C193.46 159.117 193.515 159.25 193.612 159.347C193.71 159.445 193.842 159.499 193.98 159.499C194.118 159.499 194.25 159.445 194.348 159.347C194.445 159.25 194.5 159.117 194.5 158.979V157.979C194.5 157.841 194.445 157.709 194.348 157.612C194.25 157.514 194.118 157.459 193.98 157.459ZM192.933 156.933C193.211 156.655 193.587 156.499 193.98 156.499C194.373 156.499 194.749 156.655 195.027 156.933C195.304 157.21 195.46 157.587 195.46 157.979V158.979C195.46 159.372 195.304 159.748 195.027 160.026C194.749 160.303 194.373 160.459 193.98 160.459C193.587 160.459 193.211 160.303 192.933 160.026C192.656 159.748 192.5 159.372 192.5 158.979V157.979C192.5 157.587 192.656 157.21 192.933 156.933Z" fill="#E91768"/>
<path fill-rule="evenodd" clip-rule="evenodd" d="M194.48 173.46C193.641 173.46 192.96 174.141 192.96 174.98C192.96 175.819 193.641 176.5 194.48 176.5C195.319 176.5 196 175.819 196 174.98C196 174.141 195.319 173.46 194.48 173.46ZM192 174.98C192 173.61 193.11 172.5 194.48 172.5C195.85 172.5 196.96 173.61 196.96 174.98C196.96 176.35 195.85 177.46 194.48 177.46C193.11 177.46 192 176.35 192 174.98Z" fill="#E91768"/>
<path fill-rule="evenodd" clip-rule="evenodd" d="M194.48 170.96C193.414 170.96 192.391 171.384 191.637 172.137C190.884 172.891 190.46 173.914 190.46 174.98C190.46 175.419 190.64 176.054 190.969 176.82C191.293 177.573 191.736 178.4 192.214 179.209C193.051 180.627 193.973 181.956 194.48 182.665C194.987 181.956 195.909 180.627 196.746 179.209C197.223 178.4 197.667 177.573 197.991 176.82C198.32 176.054 198.5 175.419 198.5 174.98C198.5 173.914 198.076 172.891 197.323 172.137C196.569 171.384 195.546 170.96 194.48 170.96ZM190.959 171.459C191.893 170.525 193.159 170 194.48 170C195.801 170 197.067 170.525 198.001 171.459C198.935 172.393 199.46 173.659 199.46 174.98C199.46 175.624 199.212 176.409 198.873 177.199C198.527 178.004 198.061 178.87 197.573 179.697C196.597 181.35 195.513 182.879 195.071 183.487L195.07 183.489C195.002 183.581 194.913 183.656 194.811 183.708C194.708 183.76 194.595 183.787 194.48 183.787C194.365 183.787 194.252 183.76 194.149 183.708C194.047 183.656 193.958 183.581 193.89 183.489L193.889 183.487C193.447 182.879 192.363 181.35 191.387 179.697C190.899 178.87 190.433 178.004 190.087 177.199C189.748 176.409 189.5 175.624 189.5 174.98C189.5 173.659 190.025 172.393 190.959 171.459Z" fill="#E91768"/>
<path fill-rule="evenodd" clip-rule="evenodd" d="M197.995 181.743C198.047 181.483 198.299 181.314 198.559 181.365C199.493 181.55 200.298 181.802 200.882 182.114C201.174 182.27 201.433 182.452 201.624 182.667C201.818 182.886 201.96 183.16 201.96 183.48C201.96 184 201.595 184.388 201.199 184.656C200.785 184.935 200.219 185.168 199.562 185.356C198.241 185.733 196.445 185.96 194.48 185.96C192.515 185.96 190.719 185.733 189.398 185.356C188.741 185.168 188.175 184.935 187.761 184.656C187.365 184.388 187 184 187 183.48C187 183.16 187.141 182.887 187.335 182.669C187.525 182.454 187.783 182.272 188.074 182.116C188.656 181.805 189.457 181.552 190.386 181.367C190.646 181.315 190.899 181.484 190.951 181.744C191.003 182.004 190.834 182.257 190.574 182.309C189.69 182.485 188.992 182.714 188.527 182.963C188.294 183.087 188.142 183.205 188.053 183.306C187.967 183.403 187.96 183.459 187.96 183.48C187.96 183.513 187.987 183.65 188.299 183.861C188.594 184.06 189.052 184.258 189.662 184.433C190.875 184.779 192.578 185 194.48 185C196.382 185 198.085 184.779 199.298 184.433C199.908 184.258 200.366 184.06 200.661 183.861C200.973 183.65 201 183.513 201 183.48C201 183.459 200.993 183.403 200.906 183.305C200.817 183.204 200.664 183.086 200.43 182.961C199.963 182.712 199.26 182.483 198.373 182.307C198.113 182.255 197.944 182.003 197.995 181.743Z" fill="#E91768"/>
<g clip-path="url(#clip1_3_2)">
<path fill-rule="evenodd" clip-rule="evenodd" d="M153.54 173.54C156.447 170.633 160.389 169 164.5 169C168.611 169 172.553 170.633 175.46 173.54C178.367 176.447 180 180.389 180 184.5C180 188.611 178.367 192.553 175.46 195.46C172.553 198.367 168.611 200 164.5 200C160.389 200 156.447 198.367 153.54 195.46C150.633 192.553 149 188.611 149 184.5C149 180.389 150.633 176.447 153.54 173.54ZM164.5 171.067C160.937 171.067 157.52 172.482 155.001 175.001C152.482 177.52 151.067 180.937 151.067 184.5C151.067 188.063 152.482 191.48 155.001 193.999C157.52 196.518 160.937 197.933 164.5 197.933C168.063 197.933 171.48 196.518 173.999 193.999C176.518 191.48 177.933 188.063 177.933 184.5C177.933 180.937 176.518 177.52 173.999 175.001C171.48 172.482 168.063 171.067 164.5 171.067Z" fill="#1C1F39"/>
<path fill-rule="evenodd" clip-rule="evenodd" d="M164.5 178.3C165.071 178.3 165.533 178.763 165.533 179.333V184.5C165.533 185.071 165.071 185.533 164.5 185.533C163.929 185.533 163.467 185.071 163.467 184.5V179.333C163.467 178.763 163.929 178.3 164.5 178.3Z" fill="#E91768"/>
<path fill-rule="evenodd" clip-rule="evenodd" d="M163.77 183.769C164.173 183.366 164.827 183.366 165.231 183.769L171.689 190.228C172.092 190.632 172.092 191.286 171.688 191.69C171.285 192.093 170.631 192.093 170.227 191.69L163.769 185.231C163.366 184.827 163.366 184.173 163.77 183.769Z" fill="#E91768"/>
</g>
</g>
<defs>
<linearGradient id="paint0_linear_3_2" x1="186.963" y1="145.009" x2="191.472" y2="126.224" gradientUnits="userSpaceOnUse">
<stop stop-color="#E91768"/>
<stop offset="0.494792" stop-color="#EF545A"/>
<stop offset="1" stop-color="#F58E62"/>
</linearGradient>
<clipPath id="clip0_3_2">
<rect width="251" height="250" fill="white"/>
</clipPath>
<clipPath id="clip1_3_2">
<rect width="31" height="31" fill="white" transform="translate(149 169)"/>
</clipPath>
</defs>
</svg>
