<svg width="305" height="450" viewBox="0 0 305 450" fill="none" xmlns="http://www.w3.org/2000/svg">
<g style="mix-blend-mode:overlay">
<path d="M1.89331 313.487L1.1864 313.808L1.1864 313.031L1.1864 250.741L1.1864 250.419L1.47949 250.286L206.037 157.305L1.4795 64.3247L1.18641 64.1915L1.18641 63.8695L1.18641 1.579L1.18642 0.802509L1.89332 1.12383L275.972 125.705L276.265 125.838L276.265 126.16L276.265 188.451L276.265 188.772L275.972 188.906L1.89331 313.487Z" fill="url(#paint0_linear_2568_6649)"/>
<path d="M1.89331 313.487L1.1864 313.808L1.1864 313.031L1.1864 250.741L1.1864 250.419L1.47949 250.286L206.037 157.305L1.4795 64.3247L1.18641 64.1915L1.18641 63.8695L1.18641 1.579L1.18642 0.802509L1.89332 1.12383L275.972 125.705L276.265 125.838L276.265 126.16L276.265 188.451L276.265 188.772L275.972 188.906L1.89331 313.487Z" stroke="url(#paint1_linear_2568_6649)"/>
</g>
<g style="mix-blend-mode:overlay">
<path d="M302.967 348.37L303.673 348.69L303.673 347.914L303.673 318.015L303.673 317.692L303.379 317.559L205.343 273.166L303.379 228.772L303.673 228.639L303.673 228.317L303.673 198.417L303.673 197.642L302.967 197.962L170.911 257.761L170.617 257.894L170.617 258.216L170.617 288.115L170.617 288.438L170.911 288.571L302.967 348.37Z" fill="url(#paint2_linear_2568_6649)"/>
<path d="M302.967 348.37L303.673 348.69L303.673 347.914L303.673 318.015L303.673 317.692L303.379 317.559L205.343 273.166L303.379 228.772L303.673 228.639L303.673 228.317L303.673 198.417L303.673 197.642L302.967 197.962L170.911 257.761L170.617 257.894L170.617 258.216L170.617 288.115L170.617 288.438L170.911 288.571L302.967 348.37Z" stroke="url(#paint3_linear_2568_6649)"/>
</g>
<g style="mix-blend-mode:overlay">
<path d="M213.269 448.035L213.975 448.353L213.975 447.579L213.975 432.131L213.975 431.808L213.68 431.675L163.301 408.959L213.68 386.243L213.975 386.11L213.975 385.787L213.975 370.339L213.975 369.565L213.269 369.883L144.75 400.779L144.455 400.912L144.455 401.235L144.455 416.683L144.455 417.006L144.75 417.139L213.269 448.035Z" fill="url(#paint4_linear_2568_6649)"/>
<path d="M213.269 448.035L213.975 448.353L213.975 447.579L213.975 432.131L213.975 431.808L213.68 431.675L163.301 408.959L213.68 386.243L213.975 386.11L213.975 385.787L213.975 370.339L213.975 369.565L213.269 369.883L144.75 400.779L144.455 400.912L144.455 401.235L144.455 416.683L144.455 417.006L144.75 417.139L213.269 448.035Z" stroke="url(#paint5_linear_2568_6649)"/>
</g>
<g style="mix-blend-mode:overlay">
<path d="M138.933 385.744L138.226 386.065L138.226 385.289L138.226 366.602L138.226 366.28L138.519 366.146L199.185 338.571L138.519 310.995L138.226 310.862L138.226 310.54L138.226 291.853L138.226 291.077L138.933 291.398L221.156 328.772L221.449 328.905L221.449 329.227L221.449 347.915L221.449 348.236L221.156 348.37L138.933 385.744Z" fill="url(#paint6_linear_2568_6649)"/>
<path d="M138.933 385.744L138.226 386.065L138.226 385.289L138.226 366.602L138.226 366.28L138.519 366.146L199.185 338.571L138.519 310.995L138.226 310.862L138.226 310.54L138.226 291.853L138.226 291.077L138.933 291.398L221.156 328.772L221.449 328.905L221.449 329.227L221.449 347.915L221.449 348.236L221.156 348.37L138.933 385.744Z" stroke="url(#paint7_linear_2568_6649)"/>
</g>
<defs>
<linearGradient id="paint0_linear_2568_6649" x1="275.765" y1="157.305" x2="105.392" y2="157.305" gradientUnits="userSpaceOnUse">
<stop stop-color="#D9D9D9" stop-opacity="0.21"/>
<stop offset="0.291667" stop-color="#D9D9D9" stop-opacity="0.17"/>
<stop offset="0.756715" stop-color="#D9D9D9" stop-opacity="0"/>
</linearGradient>
<linearGradient id="paint1_linear_2568_6649" x1="90.5767" y1="153.597" x2="285.395" y2="157.297" gradientUnits="userSpaceOnUse">
<stop offset="0.303624" stop-color="white" stop-opacity="0"/>
<stop offset="1" stop-color="white"/>
</linearGradient>
<linearGradient id="paint2_linear_2568_6649" x1="171.117" y1="273.166" x2="346.776" y2="273.166" gradientUnits="userSpaceOnUse">
<stop stop-color="#D9D9D9" stop-opacity="0.21"/>
<stop offset="0.291667" stop-color="#D9D9D9" stop-opacity="0.17"/>
<stop offset="0.756715" stop-color="#D9D9D9" stop-opacity="0"/>
</linearGradient>
<linearGradient id="paint3_linear_2568_6649" x1="293.207" y1="273.166" x2="166.477" y2="273.179" gradientUnits="userSpaceOnUse">
<stop offset="0.303624" stop-color="white" stop-opacity="0"/>
<stop offset="1" stop-color="white"/>
</linearGradient>
<linearGradient id="paint4_linear_2568_6649" x1="144.955" y1="408.959" x2="236.099" y2="408.959" gradientUnits="userSpaceOnUse">
<stop stop-color="#D9D9D9" stop-opacity="0.21"/>
<stop offset="0.291667" stop-color="#D9D9D9" stop-opacity="0.17"/>
<stop offset="0.756715" stop-color="#D9D9D9" stop-opacity="0"/>
</linearGradient>
<linearGradient id="paint5_linear_2568_6649" x1="208.303" y1="408.959" x2="142.548" y2="408.966" gradientUnits="userSpaceOnUse">
<stop offset="0.303624" stop-color="white" stop-opacity="0"/>
<stop offset="1" stop-color="white"/>
</linearGradient>
<linearGradient id="paint6_linear_2568_6649" x1="220.949" y1="338.571" x2="111.577" y2="338.571" gradientUnits="userSpaceOnUse">
<stop stop-color="#D9D9D9" stop-opacity="0.21"/>
<stop offset="0.291667" stop-color="#D9D9D9" stop-opacity="0.17"/>
<stop offset="0.756715" stop-color="#D9D9D9" stop-opacity="0"/>
</linearGradient>
<linearGradient id="paint7_linear_2568_6649" x1="144.931" y1="338.571" x2="223.838" y2="338.579" gradientUnits="userSpaceOnUse">
<stop offset="0.303624" stop-color="white" stop-opacity="0"/>
<stop offset="1" stop-color="white"/>
</linearGradient>
</defs>
</svg>
