<svg width="16" height="17" viewBox="0 0 16 17" fill="none" xmlns="http://www.w3.org/2000/svg">
<path d="M3.47826 16.3301H0V5.42099H3.47826V16.3301ZM1.73983 3.96644C0.777739 3.96644 0 3.15117 0 2.14753C0 1.1439 0.77913 0.330078 1.73983 0.330078C2.69843 0.330078 3.47826 1.14535 3.47826 2.14753C3.47826 3.15117 2.69843 3.96644 1.73983 3.96644ZM16 16.3301H12.656V11.021C12.656 9.75481 12.633 8.12644 10.9176 8.12644C9.17635 8.12644 8.90852 9.50535 8.90852 10.9294V16.3301H5.56522V5.41299H8.77496V6.90462H8.82017C9.26678 6.04644 10.3583 5.14171 11.9861 5.14171C15.3739 5.14171 16 7.40281 16 10.3424V16.3301Z" fill="#AAB8C2"/>
</svg>
