<svg width="20" height="17" viewBox="0 0 20 17" fill="none" xmlns="http://www.w3.org/2000/svg">
<path d="M19.8447 2.21243C19.12 2.54184 18.3388 2.75831 17.5294 2.86184C18.3576 2.36302 18.9976 1.57243 19.2988 0.621843C18.5176 1.09243 17.6517 1.42184 16.7388 1.61008C15.9953 0.800666 14.9506 0.330078 13.7647 0.330078C11.5529 0.330078 9.74586 2.13714 9.74586 4.36773C9.74586 4.68773 9.78351 4.99831 9.84939 5.29008C6.4988 5.12067 3.51527 3.51125 1.52939 1.07361C1.18116 1.66655 0.983509 2.36302 0.983509 3.09714C0.983509 4.49949 1.68939 5.74184 2.78116 6.44773C2.11292 6.44773 1.49174 6.25949 0.945862 5.97714V6.00537C0.945862 7.96302 2.3388 9.60067 4.18351 9.96772C3.59125 10.1298 2.96948 10.1524 2.36704 10.0336C2.62267 10.8359 3.12331 11.538 3.79858 12.0411C4.47386 12.5442 5.28981 12.823 6.13174 12.8383C4.70457 13.9681 2.93551 14.5788 1.11527 14.5701C0.795273 14.5701 0.475273 14.5513 0.155273 14.5136C1.94351 15.6618 4.07057 16.3301 6.34821 16.3301C13.7647 16.3301 17.84 10.1748 17.84 4.83831C17.84 4.65949 17.84 4.49008 17.8306 4.31125C18.6212 3.74655 19.2988 3.03125 19.8447 2.21243Z" fill="#AAB8C2"/>
</svg>
