<svg width="135" height="340" viewBox="0 0 135 340" fill="none" xmlns="http://www.w3.org/2000/svg">
<g style="mix-blend-mode:overlay">
<path d="M302.56 203.907L303.267 204.229L303.267 203.452L303.267 141.162L303.267 140.84L302.974 140.706L98.4163 47.7259L302.974 -45.2547L303.267 -45.3879L303.267 -45.7099L303.267 -108L303.267 -108.777L302.56 -108.456L28.4816 16.1255L28.1885 16.2587L28.1885 16.5807L28.1885 78.8712L28.1885 79.1931L28.4816 79.3263L302.56 203.907Z" fill="url(#paint0_linear_4210_9510)"/>
<path d="M302.56 203.907L303.267 204.229L303.267 203.452L303.267 141.162L303.267 140.84L302.974 140.706L98.4163 47.7259L302.974 -45.2547L303.267 -45.3879L303.267 -45.7099L303.267 -108L303.267 -108.777L302.56 -108.456L28.4816 16.1255L28.1885 16.2587L28.1885 16.5807L28.1885 78.8712L28.1885 79.1931L28.4816 79.3263L302.56 203.907Z" stroke="url(#paint1_linear_4210_9510)"/>
</g>
<g style="mix-blend-mode:overlay">
<path d="M1.48631 238.79L0.78006 239.11L0.78006 238.335L0.780061 208.436L0.780061 208.113L1.07381 207.98L99.1099 163.586L1.07381 119.193L0.780065 119.06L0.780065 118.737L0.780066 88.8378L0.780066 88.0625L1.48632 88.3823L133.542 148.181L133.836 148.314L133.836 148.637L133.836 178.536L133.836 178.859L133.542 178.992L1.48631 238.79Z" fill="url(#paint2_linear_4210_9510)"/>
<path d="M1.48631 238.79L0.78006 239.11L0.78006 238.335L0.780061 208.436L0.780061 208.113L1.07381 207.98L99.1099 163.586L1.07381 119.193L0.780065 119.06L0.780065 118.737L0.780066 88.8378L0.780066 88.0625L1.48632 88.3823L133.542 148.181L133.836 148.314L133.836 148.637L133.836 178.536L133.836 178.859L133.542 178.992L1.48631 238.79Z" stroke="url(#paint3_linear_4210_9510)"/>
</g>
<g style="mix-blend-mode:overlay">
<path d="M91.184 338.456L90.4785 338.774L90.4785 338L90.4785 322.552L90.4785 322.229L90.773 322.096L141.152 299.38L90.773 276.664L90.4785 276.531L90.4785 276.208L90.4785 260.76L90.4785 259.986L91.184 260.304L159.704 291.2L159.998 291.333L159.998 291.656L159.998 307.104L159.998 307.427L159.704 307.56L91.184 338.456Z" fill="url(#paint4_linear_4210_9510)"/>
<path d="M91.184 338.456L90.4785 338.774L90.4785 338L90.4785 322.552L90.4785 322.229L90.773 322.096L141.152 299.38L90.773 276.664L90.4785 276.531L90.4785 276.208L90.4785 260.76L90.4785 259.986L91.184 260.304L159.704 291.2L159.998 291.333L159.998 291.656L159.998 307.104L159.998 307.427L159.704 307.56L91.184 338.456Z" stroke="url(#paint5_linear_4210_9510)"/>
</g>
<g style="mix-blend-mode:overlay">
<path d="M165.52 276.165L166.227 276.486L166.227 275.71L166.227 257.023L166.227 256.701L165.934 256.568L105.268 228.992L165.934 201.417L166.227 201.283L166.227 200.961L166.227 182.274L166.227 181.498L165.52 181.819L83.297 219.193L83.0039 219.327L83.0039 219.649L83.0039 238.336L83.0039 238.658L83.297 238.791L165.52 276.165Z" fill="url(#paint6_linear_4210_9510)"/>
<path d="M165.52 276.165L166.227 276.486L166.227 275.71L166.227 257.023L166.227 256.701L165.934 256.568L105.268 228.992L165.934 201.417L166.227 201.283L166.227 200.961L166.227 182.274L166.227 181.498L165.52 181.819L83.297 219.193L83.0039 219.327L83.0039 219.649L83.0039 238.336L83.0039 238.658L83.297 238.791L165.52 276.165Z" stroke="url(#paint7_linear_4210_9510)"/>
</g>
<defs>
<linearGradient id="paint0_linear_4210_9510" x1="28.6885" y1="47.7259" x2="199.061" y2="47.7259" gradientUnits="userSpaceOnUse">
<stop stop-color="#D9D9D9" stop-opacity="0.21"/>
<stop offset="0.291667" stop-color="#D9D9D9" stop-opacity="0.17"/>
<stop offset="0.756715" stop-color="#D9D9D9" stop-opacity="0"/>
</linearGradient>
<linearGradient id="paint1_linear_4210_9510" x1="213.876" y1="44.0181" x2="19.0585" y2="47.7179" gradientUnits="userSpaceOnUse">
<stop offset="0.303624" stop-color="white" stop-opacity="0"/>
<stop offset="1" stop-color="white"/>
</linearGradient>
<linearGradient id="paint2_linear_4210_9510" x1="133.336" y1="163.586" x2="-42.3233" y2="163.586" gradientUnits="userSpaceOnUse">
<stop stop-color="#D9D9D9" stop-opacity="0.21"/>
<stop offset="0.291667" stop-color="#D9D9D9" stop-opacity="0.17"/>
<stop offset="0.756715" stop-color="#D9D9D9" stop-opacity="0"/>
</linearGradient>
<linearGradient id="paint3_linear_4210_9510" x1="11.2465" y1="163.586" x2="137.976" y2="163.599" gradientUnits="userSpaceOnUse">
<stop offset="0.303624" stop-color="white" stop-opacity="0"/>
<stop offset="1" stop-color="white"/>
</linearGradient>
<linearGradient id="paint4_linear_4210_9510" x1="159.498" y1="299.38" x2="68.3541" y2="299.38" gradientUnits="userSpaceOnUse">
<stop stop-color="#D9D9D9" stop-opacity="0.21"/>
<stop offset="0.291667" stop-color="#D9D9D9" stop-opacity="0.17"/>
<stop offset="0.756715" stop-color="#D9D9D9" stop-opacity="0"/>
</linearGradient>
<linearGradient id="paint5_linear_4210_9510" x1="96.1498" y1="299.38" x2="161.905" y2="299.387" gradientUnits="userSpaceOnUse">
<stop offset="0.303624" stop-color="white" stop-opacity="0"/>
<stop offset="1" stop-color="white"/>
</linearGradient>
<linearGradient id="paint6_linear_4210_9510" x1="83.5039" y1="228.992" x2="192.877" y2="228.992" gradientUnits="userSpaceOnUse">
<stop stop-color="#D9D9D9" stop-opacity="0.21"/>
<stop offset="0.291667" stop-color="#D9D9D9" stop-opacity="0.17"/>
<stop offset="0.756715" stop-color="#D9D9D9" stop-opacity="0"/>
</linearGradient>
<linearGradient id="paint7_linear_4210_9510" x1="159.522" y1="228.992" x2="80.615" y2="229" gradientUnits="userSpaceOnUse">
<stop offset="0.303624" stop-color="white" stop-opacity="0"/>
<stop offset="1" stop-color="white"/>
</linearGradient>
</defs>
</svg>
