<svg width="18" height="17" viewBox="0 0 18 17" fill="none" xmlns="http://www.w3.org/2000/svg">
<path fill-rule="evenodd" clip-rule="evenodd" d="M17.6588 1.8766C17.7669 1.77465 17.8526 1.65359 17.9112 1.52033C17.9697 1.38708 17.9999 1.24423 18 1.09996C18.0001 0.955691 17.9701 0.812814 17.9117 0.679491C17.8534 0.546167 17.7678 0.425007 17.6598 0.322928C17.5519 0.22085 17.4237 0.139853 17.2826 0.0845606C17.1415 0.0292682 16.9903 0.000763952 16.8375 0.000675279C16.6847 0.000586605 16.5335 0.0289152 16.3923 0.0840437C16.2511 0.139172 16.1228 0.220021 16.0148 0.321974L8.99985 6.94728L1.98696 0.321974C1.76868 0.115817 1.47263 -2.17221e-09 1.16393 0C0.855238 2.17221e-09 0.559187 0.115817 0.340908 0.321974C0.122628 0.52813 2.29995e-09 0.807738 0 1.09929C-2.29995e-09 1.39084 0.122628 1.67044 0.340908 1.8766L7.35582 8.5L0.340908 15.1234C0.232827 15.2255 0.147092 15.3467 0.0885989 15.48C0.0301058 15.6134 0 15.7563 0 15.9007C0 16.0451 0.0301058 16.188 0.0885989 16.3214C0.147092 16.4548 0.232827 16.5759 0.340908 16.678C0.559187 16.8842 0.855238 17 1.16393 17C1.31678 17 1.46813 16.9716 1.60935 16.9163C1.75056 16.8611 1.87888 16.7801 1.98696 16.678L8.99985 10.0527L16.0148 16.678C16.233 16.8839 16.529 16.9995 16.8375 16.9993C17.146 16.9991 17.4418 16.8832 17.6598 16.6771C17.8778 16.4709 18.0002 16.1914 18 15.9C17.9998 15.6087 17.8771 15.3293 17.6588 15.1234L10.6439 8.5L17.6588 1.8766Z" fill="#1C1F39"/>
</svg>
