<svg width="28" height="23" viewBox="0 0 28 23" fill="none" xmlns="http://www.w3.org/2000/svg">
<path d="M15.9324 23V16.0839C15.9324 11.7413 16.9315 8.2028 18.9296 5.46853C20.9803 2.68065 24.0038 0.857807 28 0V5.22727C26.2122 5.65618 24.7925 6.46037 23.7408 7.63986C22.6892 8.76573 22.0056 10.1329 21.6901 11.7413H26.4225V23H15.9324ZM0 23V16.0839C0 11.7413 0.99906 8.2028 2.99718 5.46853C5.04789 2.68065 8.04507 0.857807 11.9887 0V5.22727C10.2009 5.65618 8.78122 6.46037 7.72958 7.63986C6.67793 8.76573 5.99437 10.1329 5.67887 11.7413H10.4113V23H0Z" fill="white"/>
</svg>
