<svg width="23" height="22" viewBox="0 0 23 22" fill="none" xmlns="http://www.w3.org/2000/svg">
<path fill-rule="evenodd" clip-rule="evenodd" d="M9.10526 16.4132C13.0977 16.4132 16.3343 13.1767 16.3343 9.18424C16.3343 5.19176 13.0977 1.95522 9.10526 1.95522C5.11278 1.95522 1.87624 5.19176 1.87624 9.18424C1.87624 13.1767 5.11278 16.4132 9.10526 16.4132ZM9.10526 17.2895C13.5817 17.2895 17.2105 13.6606 17.2105 9.18424C17.2105 4.70783 13.5817 1.07898 9.10526 1.07898C4.62885 1.07898 1 4.70783 1 9.18424C1 13.6606 4.62885 17.2895 9.10526 17.2895Z" fill="#41546F" stroke="#41546F" stroke-width="0.5"/>
<path fill-rule="evenodd" clip-rule="evenodd" d="M15.1007 14.3464L21.6383 20.9803C21.8115 21.1535 21.8115 21.4343 21.6383 21.6075C21.4651 21.7806 21.1843 21.7806 21.0112 21.6075L14.4736 14.9736L15.1007 14.3464Z" fill="#41546F" stroke="#41546F" stroke-width="0.5" stroke-linecap="round"/>
</svg>
