<svg width="17" height="18" viewBox="0 0 17 18" fill="none" xmlns="http://www.w3.org/2000/svg">
<path d="M12.985 6.09398V4.0696C13.5196 3.81762 13.8836 3.28353 13.8841 2.66437V2.6213C13.8809 1.76309 13.1864 1.06855 12.3287 1.06532H12.2851C11.4269 1.06855 10.7323 1.76309 10.7291 2.62076V2.66437C10.7329 3.28299 11.0952 3.81547 11.6185 4.06529L11.6277 4.0696V6.09398C10.8212 6.21674 10.1072 6.54409 9.51985 7.02111L9.52792 7.01465L3.97701 2.69667C4.01632 2.56477 4.03947 2.41294 4.04162 2.25626V2.25519C4.04162 1.28606 3.25556 0.5 2.28644 0.5C1.31731 0.5 0.53125 1.28606 0.53125 2.25519C0.53125 3.22269 1.31408 4.00714 2.28051 4.01037H2.28105C2.60086 4.00768 2.89914 3.91992 3.15595 3.76917L3.14788 3.77348L8.60726 8.02146C8.14531 8.70899 7.87019 9.55536 7.87019 10.4658C7.87019 11.4198 8.17277 12.3039 8.68694 13.0259L8.67779 13.0124L6.9926 14.6707C6.88438 14.6416 6.76001 14.6249 6.63187 14.6249C5.83773 14.6249 5.19434 15.2683 5.19434 16.0625C5.19434 16.8566 5.83773 17.5 6.63187 17.5C7.42601 17.5 8.0694 16.8566 8.0694 16.0625V16.0431V16.0442C8.06509 15.8966 8.03979 15.7567 7.99618 15.6248L7.99941 15.635L9.61461 14.0198C10.3436 14.5679 11.2643 14.8974 12.2614 14.8974C14.7084 14.8974 16.6924 12.9134 16.6924 10.4663C16.6924 8.27451 15.1014 6.45471 13.0114 6.09829L12.985 6.09452V6.09398ZM12.3066 12.7432H12.3012C11.0435 12.7432 10.0238 11.7235 10.0238 10.4658C10.0238 9.20809 11.0435 8.18836 12.3012 8.18836C13.5589 8.18836 14.5787 9.20809 14.5787 10.4658V10.4712C14.5787 11.7262 13.5616 12.7432 12.3066 12.7432Z" fill="white"/>
</svg>
