<svg width="96" height="93" viewBox="0 0 96 93" xmlns="http://www.w3.org/2000/svg">
    <g fill="none" fill-rule="evenodd">
        <path d="M50.786 38.902c-1.66-.96-4.38-.96-6.041 0L1.24 64.018c-1.661.96-1.652 2.515.019 3.456l43.467 24.464c1.672.941 4.407.941 6.08 0l43.466-24.464c1.67-.941 1.68-2.496.02-3.456L50.785 38.902z" fill-opacity=".5" fill="#F9D28C"/>
        <path d="M65.995 36.763c3.629 2.095 3.629 5.524 0 7.619l-1.162.67c-3.628 2.096-9.567 2.096-13.196 0L28.424 31.65c-3.629-2.095-3.64-5.542-.025-7.66l1.107-.648c3.615-2.118 9.542-2.137 13.171-.042l23.318 13.463zM65.995 65.472c3.629 2.095 3.629 5.523 0 7.619l-1.162.67c-3.628 2.095-9.567 2.095-13.196 0L28.424 60.36c-3.629-2.095-3.64-5.543-.025-7.66l1.107-.648c3.615-2.118 9.542-2.137 13.171-.042l23.318 13.463z" stroke="#33475C" stroke-width="5" stroke-linecap="round" stroke-linejoin="round"/>
        <path d="M25.694 27.829c.004 1.388.915 2.775 2.73 3.823l23.213 13.402c3.629 2.095 9.566 2.095 13.197 0l1.161-.673c1.572-.907 2.421-2.067 2.63-3.259l.092.032v28.517l-.063-.017c-.148 1.253-1.009 2.483-2.659 3.438l-1.161.67c-3.631 2.095-9.568 2.095-13.197 0L28.424 60.36c-1.387-.802-2.236-1.8-2.566-2.846-.103-.321-.162-.649-.164-.977V27.83z" stroke="#33475C" stroke-width="5" stroke-linecap="round" stroke-linejoin="round"/>
        <path d="M60.54 42.024c2.102 0 3.809-1.707 3.809-3.81v-6.562c0-9.868-6.694-21.46-15.238-26.396-4.71-2.716-9.53-3.044-13.227-.912-3.699 2.135-5.821 6.476-5.821 11.91v8.469c0 2.103 1.707 3.81 3.81 3.81 2.102 0 3.81-1.707 3.81-3.81v-8.469c0-2.638.732-4.575 2.01-5.312 1.28-.737 3.326-.406 5.608.914 6.194 3.575 11.429 12.642 11.429 19.796v6.562c0 2.103 1.706 3.81 3.81 3.81z" stroke="#33475C" stroke-width="5" stroke-linecap="round" stroke-linejoin="round"/>
        <path d="M65.995 36.763c3.629 2.095 3.629 5.524 0 7.619l-1.162.67c-3.628 2.096-9.567 2.096-13.196 0L28.424 31.65c-3.629-2.095-3.64-5.542-.025-7.66l1.107-.648c3.615-2.118 9.542-2.137 13.171-.042l23.318 13.463z" fill="#FBE1B2"/>
        <path d="M65.995 36.763c3.629 2.095 3.629 5.524 0 7.619l-1.162.67c-3.628 2.096-9.567 2.096-13.196 0L28.424 31.65c-3.629-2.095-3.64-5.542-.025-7.66l1.107-.648c3.615-2.118 9.542-2.137 13.171-.042l23.318 13.463z" stroke="#33475C"/>
        <path d="M65.995 65.472c3.629 2.095 3.629 5.523 0 7.619l-1.162.67c-3.628 2.095-9.567 2.095-13.196 0L28.424 60.36c-3.629-2.095-3.64-5.543-.025-7.66l1.107-.648c3.615-2.118 9.542-2.137 13.171-.042l23.318 13.463z" fill="#FFF"/>
        <path d="M65.995 65.472c3.629 2.095 3.629 5.523 0 7.619l-1.162.67c-3.628 2.095-9.567 2.095-13.196 0L28.424 60.36c-3.629-2.095-3.64-5.543-.025-7.66l1.107-.648c3.615-2.118 9.542-2.137 13.171-.042l23.318 13.463z" stroke="#33475C" stroke-linecap="round" stroke-linejoin="round"/>
        <path d="M25.694 27.829c.004 1.388.915 2.775 2.73 3.823l23.213 13.402c3.629 2.095 9.566 2.095 13.197 0l1.161-.673c1.572-.907 2.421-2.067 2.63-3.259l.092.032v28.517l-.063-.017c-.148 1.253-1.009 2.483-2.659 3.438l-1.161.67c-3.631 2.095-9.568 2.095-13.197 0L28.424 60.36c-1.387-.802-2.236-1.8-2.566-2.846-.103-.321-.162-.649-.164-.977V27.83z" fill="#F6C364"/>
        <path d="M25.694 27.829c.004 1.388.915 2.775 2.73 3.823l23.213 13.402c3.629 2.095 9.566 2.095 13.197 0l1.161-.673c1.572-.907 2.421-2.067 2.63-3.259l.092.032v28.517l-.063-.017c-.148 1.253-1.009 2.483-2.659 3.438l-1.161.67c-3.631 2.095-9.568 2.095-13.197 0L28.424 60.36c-1.387-.802-2.236-1.8-2.566-2.846-.103-.321-.162-.649-.164-.977V27.83z" stroke="#33475C"/>
        <path d="M60.54 42.024c2.102 0 3.809-1.707 3.809-3.81v-6.562c0-9.868-6.694-21.46-15.238-26.396-4.71-2.716-9.53-3.044-13.227-.912-3.699 2.135-5.821 6.476-5.821 11.91v8.469c0 2.103 1.707 3.81 3.81 3.81 2.102 0 3.81-1.707 3.81-3.81v-8.469c0-2.638.732-4.575 2.01-5.312 1.28-.737 3.326-.406 5.608.914 6.194 3.575 11.429 12.642 11.429 19.796v6.562c0 2.103 1.706 3.81 3.81 3.81" fill="#F9D28C"/>
        <path d="M60.54 42.024c2.102 0 3.809-1.707 3.809-3.81v-6.562c0-9.868-6.694-21.46-15.238-26.396-4.71-2.716-9.53-3.044-13.227-.912-3.699 2.135-5.821 6.476-5.821 11.91v8.469c0 2.103 1.707 3.81 3.81 3.81 2.102 0 3.81-1.707 3.81-3.81v-8.469c0-2.638.732-4.575 2.01-5.312 1.28-.737 3.326-.406 5.608.914 6.194 3.575 11.429 12.642 11.429 19.796v6.562c0 2.103 1.706 3.81 3.81 3.81z" stroke="#33475C"/>
    </g>
</svg>
