<svg width="16" height="16" viewBox="0 0 16 16" fill="none" xmlns="http://www.w3.org/2000/svg">
<rect x="0.5" y="0.699997" width="15" height="15" rx="7.5" fill="#6A78D1"/>
<g clip-path="url(#clip0_737_15455)">
<path d="M3.50025 8.1088V8.11154C3.50025 8.39735 3.73185 8.62895 4.01766 8.62895H10.7331L8.85234 10.5097C8.75844 10.6036 8.7004 10.7334 8.7004 10.8766C8.7004 11.1632 8.93255 11.3953 9.21918 11.3953C9.36236 11.3953 9.49213 11.3373 9.58603 11.2434L12.351 8.47838C12.3981 8.43102 12.4362 8.37462 12.4619 8.31193L12.4633 8.30865C12.4866 8.2528 12.5 8.18792 12.5 8.11975C12.5 8.05158 12.4866 7.9867 12.4619 7.92757L12.463 7.93085C12.4359 7.86488 12.3979 7.80848 12.3508 7.76112L9.57206 4.97694C9.47816 4.88303 9.3484 4.825 9.20522 4.825C8.91859 4.825 8.68644 5.05715 8.68644 5.34378C8.68644 5.48696 8.74447 5.61672 8.83838 5.71062L10.7328 7.59138H4.01739C3.73158 7.59138 3.49997 7.82299 3.49997 8.1088H3.50025Z" fill="white"/>
</g>
<defs>
<clipPath id="clip0_737_15455">
<rect x="3.5" y="3.7" width="9" height="9" rx="4.5" fill="white"/>
</clipPath>
</defs>
</svg>
